
<svg xmlns="http://www.w3.org/2000/svg" width="800" height="600" viewBox="0 0 800 600">
  <defs>
    <linearGradient id="grad1" x1="0%" y1="0%" x2="100%" y2="100%">
      <stop offset="0%" style="stop-color:#9d4edd;stop-opacity:0.2" />
      <stop offset="100%" style="stop-color:#7b2cbf;stop-opacity:0.1" />
    </linearGradient>
  </defs>
  <rect width="100%" height="100%" fill="url(#grad1)"/>
  <path d="M0,160L48,170.7C96,181,192,203,288,208C384,213,480,203,576,181.3C672,160,768,128,864,128C960,128,1056,160,1152,181.3C1248,203,1344,213,1392,218.7L1440,224L1440,0L1392,0C1344,0,1248,0,1152,0C1056,0,960,0,864,0C768,0,672,0,576,0C480,0,384,0,288,0C192,0,96,0,48,0L0,0Z" fill="#7b2cbf" fill-opacity="0.1"/>
  <path d="M0,160L48,170.7C96,181,192,203,288,208C384,213,480,203,576,181.3C672,160,768,128,864,128C960,128,1056,160,1152,181.3C1248,203,1344,213,1392,218.7L1440,224L1440,0L1392,0C1344,0,1248,0,1152,0C1056,0,960,0,864,0C768,0,672,0,576,0C480,0,384,0,288,0C192,0,96,0,48,0L0,0Z" fill="#9d4edd" fill-opacity="0.05" transform="rotate(180 720 128)"/>
</svg>
