<?xml version="1.0" encoding="UTF-8"?>
<svg width="36" height="36" viewBox="0 0 36 36" fill="none" xmlns="http://www.w3.org/2000/svg">
  <!-- Notebook base -->
  <rect x="5" y="4" width="26" height="28" rx="2" fill="#9C27B0" />
  <rect x="7" y="6" width="22" height="24" rx="1" fill="#F5F5F5" />
  
  <!-- Notebook spiral binding -->
  <rect x="3" y="6" width="2" height="2" rx="1" fill="#7B1FA2" />
  <rect x="3" y="10" width="2" height="2" rx="1" fill="#7B1FA2" />
  <rect x="3" y="14" width="2" height="2" rx="1" fill="#7B1FA2" />
  <rect x="3" y="18" width="2" height="2" rx="1" fill="#7B1FA2" />
  <rect x="3" y="22" width="2" height="2" rx="1" fill="#7B1FA2" />
  <rect x="3" y="26" width="2" height="2" rx="1" fill="#7B1FA2" />
  
  <!-- Notebook lines -->
  <rect x="10" y="10" width="16" height="1" fill="#E0E0E0" />
  <rect x="10" y="14" width="16" height="1" fill="#E0E0E0" />
  <rect x="10" y="18" width="16" height="1" fill="#E0E0E0" />
  <rect x="10" y="22" width="16" height="1" fill="#E0E0E0" />
  <rect x="10" y="26" width="16" height="1" fill="#E0E0E0" />
  
  <!-- Pencil -->
  <path d="M28 8L32 12L20 24L16 20L28 8Z" fill="#FFC107" />
  <path d="M16 20L14 26L20 24L16 20Z" fill="#FFA000" />
  <path d="M32 12L30 14L26 10L28 8L32 12Z" fill="#FF5722" />
</svg>